<?xml version="1.0" encoding="utf-8"?>
<!-- Generator: Adobe Illustrator 15.0.0, SVG Export Plug-In . SVG Version: 6.00 Build 0)  -->
<!DOCTYPE svg PUBLIC "-//W3C//DTD SVG 1.1//EN" "http://www.w3.org/Graphics/SVG/1.1/DTD/svg11.dtd">
<svg version="1.1" id="Layer_1" xmlns="http://www.w3.org/2000/svg" xmlns:xlink="http://www.w3.org/1999/xlink" x="0px" y="0px"
	 width="1305px" height="507px" viewBox="0 0 1305 507" enable-background="new 0 0 1305 507" xml:space="preserve">
<rect x="510" y="20" fill="#F7F7F7" width="285" height="125"/>
<g transform="translate(0.000000,507.000000) scale(0.100000,-0.100000)">
	<path fill="#E67E22" d="M7293,4790.002c-62.998-26.006-170-242.002-277.998-561.006
		c-46.006-136.992-91.006-216.992-164.004-291.992c-72.002-75-134.004-110-192.998-111.006
		c-67.998-0.996-87.998,22.998-87.002,107.998c0.996,98.008,2.002,99.004,100,100c100,2.002,172.998,25,230,74.004
		c50.996,44.004,69.004,80,69.004,139.004c0,63.994-26.006,105-85,132.998c-39.004,18.994-58.008,22.002-114.004,17.998
		C6638,4388,6518.996,4303,6433,4155.002c-67.002-115-119.004-152.002-160-114.004c-29.004,27.998-29.004,47.998,2.002,107.998
		c27.998,57.002,46.992,157.002,35.996,197.002c-4.004,15-19.004,37.002-34.004,47.002c-23.994,17.998-28.994,19.004-63.994,5.996
		c-30-10.996-44.004-25-65-67.998c-24.004-45.996-27.998-67.002-27.998-135.996c0-74.004-4.004-89.004-36.006-152.998
		c-18.994-39.004-58.994-96.006-87.002-127.002c-42.998-44.004-58.994-55-85-55c-30.996,0-31.992,2.002-31.992,38.994
		c0,74.004,92.998,329.004,145,397.002c21.992,27.998,23.994,37.002,15,55c-11.006,19.004-19.004,21.006-86.006,17.002
		c-70.996-2.998-75.996-5-112.998-42.998c-22.002-22.002-70-96.006-107.002-165C5653,4008.996,5613,3945.998,5565.998,3900.998
		c-47.998-47.002-70.996-37.998-60.996,26.006c12.998,90.996,86.992,272.998,150.996,375c12.998,20,20.996,43.994,17.998,52.998
		c-3.994,10,0,15,11.006,15c8.994,0,15,5.996,12.998,12.998c-2.998,5.996-25,12.998-51.006,15c-145,10-230-80.996-312.998-335
		c-57.998-175.996-55-265,7.998-317.998c28.008-22.998,39.004-27.002,83.008-22.998c65.996,5.996,132.998,40,195,100
		c35.996,35.996,50,45,50,31.992c0-32.998,38.994-98.994,68.994-116.992c19.004-11.006,50-17.002,92.998-17.002
		c111.006,0.996,185,50,279.004,187.998c29.004,42.002,54.004,79.004,55,80.996c2.002,2.002,12.998-8.994,25.996-22.998
		c28.008-32.998,92.002-48.994,139.004-35.996c47.002,13.994,49.004,12.998,49.004-12.002
		c0-115.996,106.992-207.998,240.996-207.998c82.998,0,205,55.996,267.998,123.994c27.002,29.004,41.006,21.006,41.006-25
		c0-55,72.998-98.994,165-98.994c67.998,0,152.998,27.998,215.996,70.996l59.004,40l26.992-20c52.002-42.002,135-20,205,52.002
		c68.008,70,158.008,222.998,158.008,267.998c0,37.002-21.006,66.006-40,54.004c-5-2.998-43.008-57.002-83.008-117.998
		c-75-115-123.994-167.002-156.992-167.002c-33.008,0-31.006,17.002,8.994,80c62.002,95.996,84.004,160.996,85,260
		c1.006,97.998-15,140-65.996,165.996c-65,34.004-157.998,2.998-245-82.998c-62.002-60-62.002-59.004,3.994,97.002
		C7325.002,4547.004,7385.998,4663.996,7428,4718c48.994,64.004,42.002,77.002-42.998,79.004
		C7345.998,4798,7305.002,4795.002,7293,4790.002z M6840.002,4275.002c0-61.006-127.002-165-185-151.006l-26.006,7.002
		l22.998,41.006C6680.998,4223,6753,4288,6793.996,4298.996C6831.994,4308.996,6840.002,4305.002,6840.002,4275.002z M7376.994,4183
		c-8.994-65.996-95.996-239.004-151.992-300.996c-42.002-46.006-95-78.008-109.004-65c-2.998,3.994-5.996,27.998-5.996,53.994
		c0,109.004,175.996,357.998,253.994,359.004C7380.998,4230.002,7381.994,4225.002,7376.994,4183z"/>
	<path fill="#E67E22" d="M6400.002,3338c-196.006-27.998-358.008-132.002-424.004-272.002
		c-69.004-145.996-55-362.998,32.002-487.998c70-100,140.996-149.004,395-272.002c207.002-98.994,237.002-122.998,237.002-190.996
		c0-92.002-76.006-131.006-240-122.002c-135,7.998-325,57.998-442.002,117.998l-37.998,19.004v-204.004v-203.994l87.998-32.002
		c148.994-54.004,208.994-64.004,407.002-64.004c205,0,275.996,14.004,405.996,79.004c225.996,115,330.996,375,249.004,620
		c-39.004,115-136.006,210-294.004,287.998c-39.004,19.004-129.004,62.998-199.004,97.002c-170,82.998-215,130-190.996,198.994
		c37.002,104.004,252.998,101.006,520.996-6.992l51.006-21.006l70,174.004l70,173.994l-76.006,30
		C6808.996,3338.996,6598,3367.004,6400.002,3338z"/>
	<path fill="#E67E22" d="M7855.998,3338.996c-189.004-27.998-317.002-87.998-432.002-202.998
		c-67.998-67.998-88.994-97.002-125.996-175.996c-77.998-162.998-104.004-309.004-95-530c10.996-276.006,75-447.998,222.002-595
		c93.994-95,195.996-151.006,340-187.002c130-32.002,380-32.002,510,0c336.992,84.004,520.996,322.002,555,722.002
		c16.992,195.996-10,400.996-73.008,557.002c-110.996,273.994-380,425.996-746.992,421.992
		C7958,3348,7888,3343.996,7855.998,3338.996z M8158.996,2948.996c136.006-60,194.004-193.994,195-453.994
		c2.002-290-62.002-426.006-225.996-481.006c-77.998-25.996-197.998-15.996-267.998,22.002c-68.008,36.006-120,104.004-150,192.998
		c-28.008,81.006-39.004,319.004-21.006,426.006c31.006,177.002,112.998,280.996,247.998,315
		C7991.994,2983,8105.998,2973,8158.996,2948.996z"/>
	<path fill="#E67E22" d="M1195.002,3318c-2.002-7.002-124.004-380.996-270-830c-146.006-450-267.998-824.004-271.006-832.998
		c-5-12.998,23.008-15,244.004-15h249.004l42.998,160l42.998,160l275.996-2.002l275-2.998l40-157.002l41.006-157.998H2113
		c195,0,247.998,2.998,244.004,12.998c-2.002,5.996-127.002,387.002-278.008,844.004l-273.994,832.998h-302.998
		C1268.997,3330.002,1198,3327.004,1195.002,3318z M1560.002,2825.002c27.002-110,67.002-266.006,88.994-347.002L1688,2330.002
		h-179.004c-97.998,0-178.994,2.002-178.994,3.994c0,2.002,30.996,127.002,68.994,277.002c38.008,151.006,77.002,310,87.002,354.004
		c9.004,43.994,19.004,75.996,20,70C1508,3030.002,1532.004,2935.002,1560.002,2825.002z"/>
	<path fill="#E67E22" d="M2300.002,3318c0.996-2.002,93.994-379.004,207.998-837.998l207.998-835h269.004h268.994l72.998,325
		c82.002,367.998,135,620,154.004,730l12.998,75l7.998-50c27.002-164.004,59.004-322.002,134.004-665
		c45.996-212.002,87.002-392.998,90-402.002c5-17.002,27.002-17.998,272.002-17.998h267.002L4468.996,2468
		c112.002,455,206.006,832.998,207.998,840c4.004,9.004-43.994,12.002-215.996,12.002c-122.002,0-220.996-2.002-220.996-5
		s-46.006-211.006-101.006-462.002C4083,2600.998,4023,2315.998,4005.002,2220.002c-29.004-154.004-33.008-170-40-135
		c-53.008,290-90,468.994-161.006,785c-47.002,205.996-90,392.002-95,412.998l-10,37.002h-208.994c-116.006,0-210-2.002-210-5
		s-43.008-189.004-95-412.998c-53.008-224.004-112.002-495-131.006-602.002c-50.996-282.002-47.002-272.002-67.998-150
		c-10,57.998-68.994,340.996-132.002,630C2790.998,3068.996,2740.002,3308,2740.002,3313c0,4.004-99.004,7.002-220,7.002
		C2398.996,3320.002,2300.002,3318.996,2300.002,3318z"/>
	<path fill="#E67E22" d="M4800.002,2480.002v-840h500h500v185v185h-275h-275v155v155l252.998,2.002l252.002,2.998L5758,2508
		l2.002,182.002h-255h-255v130v130l272.998,2.002l272.002,2.998L5798,3138l2.002,182.002h-500h-500V2480.002z"/>
	<path fill="#E67E22" d="M9040.002,2480.002v-840h200.996h200.996l-5,567.998c-2.998,312.002-8.994,585-12.998,607.002
		c-18.994,112.002,26.006-29.004,182.002-572.998l170-597.002l215.996-2.998c200-2.002,217.002-1.006,222.002,15
		c2.002,10,77.998,278.994,167.002,597.998c89.004,318.994,167.002,585,172.002,590c5,5.996,7.002-17.998,2.998-65
		c-2.998-41.006-7.998-315-12.002-607.002l-7.002-532.998h212.002h211.006v840v840h-303.008h-301.992L10183.996,2728
		c-93.994-325.996-175-592.002-180-590.996c-5,0.996-20.996,41.992-35,90c-13.994,47.998-92.998,313.994-173.994,590.996
		l-148.008,502.002H9343h-302.998V2480.002z"/>
	<path fill="#E67E22" d="M11230.001,2480.002v-840h500h500v185v185h-275h-275v155v155l252.998,2.002l252.002,2.998l2.998,182.998
		l2.002,182.002h-255h-255v130v130l272.998,2.002l272.002,2.998l2.998,182.998l2.002,182.002h-500h-500V2480.002z"/>
	<path fill="#666666" d="M3310.002,1138.996c-88.008-16.992-135-72.998-135-157.998c0.996-82.002,28.994-115.996,141.992-172.998
		c70-35,89.004-49.004,91.006-67.998c7.998-52.002-67.998-65-177.002-31.006L3170.002,728v-62.998V603L3218,588.997
		c72.002-20,178.994-15.996,227.998,9.004c92.998,47.002,125,133.994,82.998,218.994c-22.002,43.008-33.994,53.008-118.994,98.008
		c-95,50-114.004,70.996-90,100c15.996,18.994,91.992,18.994,145,0c20.996-7.998,40-12.998,40.996-12.002
		c15,20.996,35,100,27.002,107.998c-10,10-137.002,39.004-162.998,37.998C3361.994,1148,3335.002,1143.996,3310.002,1138.996z"/>
	<path fill="#666666" d="M4106.994,1135.998c-80.996-17.998-135-58.994-171.992-130.996c-27.002-52.998-30-67.998-30-149.004
		c0.996-137.002,43.994-212.998,145-259.004c35.996-16.992,62.998-20.996,135-18.994c50,0,112.998,7.002,140,13.994l50,13.008
		L4378,758l2.998,152.002h-115.996h-115v-55v-55h50h50v-50c0-45-2.002-50-26.006-56.006
		c-87.002-22.002-165.996,32.002-177.998,122.002c-14.004,95,19.004,175,82.002,201.006c35.996,15,113.994,13.994,168.994-3.008
		c20-5,25,0,43.008,41.006c10.996,25.996,20,50,20,55c0,3.994-19.004,12.002-42.002,17.998
		C4241.994,1145.998,4165.998,1148.996,4106.994,1135.998z"/>
	<path fill="#666666" d="M3650.002,860.002v-280h70h70v280v280h-70h-70V860.002z"/>
	<path fill="#666666" d="M4500.002,965.002c0-256.006,18.994-317.002,113.994-364.004c60-30,167.998-32.998,232.998-5.996
		c52.002,20.996,98.008,70.996,112.002,121.992c6.006,21.006,11.006,125,11.006,231.006v192.002h-70h-70v-200
		c0-186.006-1.006-201.006-20-220c-46.006-46.006-124.004-36.006-152.002,20c-15,30-17.998,63.994-17.998,217.998v182.002h-70h-70
		V965.002z"/>
	<path fill="#666666" d="M5100.002,860.998V580.002h70h70v100v100H5268c23.994,0,33.994-12.002,85.996-100l57.998-100h79.004h77.998
		L5488,698.997L5406.994,818L5443,850.002c42.998,37.002,60.996,87.002,53.994,145.996C5485.998,1098.996,5428,1130.002,5233,1138
		l-132.998,5V860.998z M5338,1013.996c15-10,22.002-25,22.002-47.998c0-47.998-19.004-67.002-73.008-72.998l-46.992-5.996v71.992
		v71.006H5278C5298.996,1030.002,5325.998,1023,5338,1013.996z"/>
	<path fill="#666666" d="M5630.002,860.002V576.995L5758,583c188.994,7.002,257.002,38.994,307.998,143.994
		c24.004,49.004,27.998,69.004,27.998,142.002c-0.996,133.008-42.002,202.002-150,247.002c-27.002,12.002-80,17.998-175.996,22.002
		l-137.998,5V860.002z M5883.996,1010.002c14.004-5,35-24.004,46.006-42.002c17.998-27.998,20.996-45.996,17.998-115
		c-2.998-77.998-5-85-35-114.004c-26.006-27.002-41.006-32.998-87.002-37.002L5770.002,698v160.996v161.006h43.994
		C5838.996,1020.002,5870.002,1015.998,5883.996,1010.002z"/>
	<path fill="#666666" d="M6420.002,860.002v-280h61.992H6543l-6.006,205c-2.998,112.998-1.992,205,2.002,205
		c4.004,0,32.998-92.002,66.006-205L6663,578.997l65,2.998l65,3.008l55.996,196.992C6880.002,890.002,6908,982.004,6913,985.998
		c3.994,4.004,7.002-85.996,7.002-199.004V580.002h60h60v280v280H6948h-92.998l-54.004-189.004
		c-57.002-200.996-65.996-224.004-77.998-204.004c-5,7.002-32.998,98.008-62.998,202.002l-55,191.006H6513h-92.998V860.002z"/>
	<path fill="#666666" d="M7401.994,860.002l70-280h84.004c45.996,0,84.004,1.992,84.004,3.994c0,14.004,80,369.004,83.994,373.008
		c7.002,7.998,11.006-6.006,30-108.008c9.004-47.998,25-127.998,37.002-177.998l20.996-90.996h82.002h81.006L8043,853
		c37.002,149.004,67.002,275,67.002,280c0,4.004-29.004,7.002-64.004,7.002H7983l-42.002-189.004
		c-22.002-104.004-40.996-199.004-40.996-210c0-29.004-19.004-35.996-24.004-9.004c-7.002,34.004-77.002,360.01-82.998,386.006
		c-5,20-11.006,22.002-67.998,22.002h-63.008L7630.998,1008c-25.996-112.002-60.996-279.004-60.996-294.004
		c0-2.002-4.004-3.994-10-3.994c-5,0-10,7.998-10,17.998c0,8.994-19.004,105.996-42.002,215l-42.998,197.002h-66.006h-67.002
		L7401.994,860.002z"/>
	<path fill="#666666" d="M8233.996,860.002l-92.002-281.006l76.006,2.998l75,3.008L8308,638l15,52.002h97.998h97.998L8530.002,648
		c5.996-24.004,12.998-49.004,15-55c2.998-9.004,27.998-12.998,78.994-12.998H8698L8605.998,858L8513,1135.002l-94.004,2.998
		l-93.994,2.998L8233.996,860.002z M8456.994,930.002l31.006-120h-67.002h-67.002l30,120c17.002,65.996,34.004,120,37.002,120
		S8440.002,995.998,8456.994,930.002z"/>
	<path fill="#666666" d="M8770.002,860.002v-280h70h70v115v115h95h95v-115v-115h70h70v280v280h-70h-70v-105v-105h-95h-95v105v105
		h-70h-70V860.002z"/>
	<path fill="#666666" d="M9380.002,860.002v-280h175h175v60v60h-110h-110v220v220h-65h-65V860.002z"/>
</g>
<rect x="565.537" y="68.218" transform="matrix(-0.8553 -0.5182 0.5182 -0.8553 1015.2691 425.4372)" fill="#E67E22" width="3.025" height="5.426"/>
<g>
	<path fill="#FFFFFF" d="M189.317,378.219l-4.362-1.196c-0.563-0.188-1.115-0.128-1.653,0.177c-0.54,0.305-0.904,0.763-1.091,1.371
		l-26.242,90.825c-0.187,0.61-0.128,1.186,0.176,1.724c0.305,0.54,0.762,0.903,1.372,1.091l4.362,1.195
		c0.563,0.189,1.114,0.131,1.653-0.175c0.54-0.306,0.903-0.763,1.09-1.371l26.242-90.826c0.187-0.609,0.128-1.185-0.176-1.724
		C190.384,378.77,189.927,378.407,189.317,378.219z"/>
	<path fill="#666666" d="M149.99,395.949c0-0.608-0.235-1.148-0.704-1.617l-3.518-3.519c-0.469-0.469-1.008-0.703-1.618-0.703
		s-1.149,0.234-1.618,0.703l-32.784,32.784c-0.47,0.469-0.704,1.009-0.704,1.618s0.235,1.149,0.704,1.618l32.784,32.783
		c0.469,0.47,1.008,0.703,1.618,0.703s1.149-0.234,1.618-0.703l3.518-3.517c0.469-0.469,0.704-1.008,0.704-1.618
		c0-0.609-0.235-1.149-0.704-1.618l-27.648-27.648l27.648-27.647C149.757,397.099,149.99,396.559,149.99,395.949z"/>
	<path fill="#666666" d="M237.085,423.596l-32.784-32.783c-0.469-0.47-1.009-0.704-1.617-0.704c-0.611,0-1.149,0.234-1.619,0.704
		l-3.517,3.517c-0.469,0.469-0.703,1.009-0.703,1.619s0.234,1.148,0.703,1.617l27.648,27.649l-27.648,27.648
		c-0.469,0.469-0.703,1.009-0.703,1.618c0,0.61,0.234,1.149,0.703,1.618l3.517,3.517c0.47,0.471,1.008,0.703,1.619,0.703
		c0.608,0,1.148-0.234,1.617-0.703l32.784-32.783c0.469-0.469,0.703-1.01,0.703-1.619S237.554,424.065,237.085,423.596z"/>
</g>
<g>
	<path fill="#666666" d="M1138.867,371.531l-5.052-1.385c-0.651-0.217-1.291-0.149-1.914,0.203c-0.625,0.354-1.047,0.883-1.264,1.59
		l-30.391,105.182c-0.217,0.706-0.149,1.372,0.204,1.996c0.354,0.625,0.882,1.046,1.589,1.263l5.052,1.385
		c0.651,0.219,1.289,0.151,1.914-0.203c0.625-0.354,1.047-0.883,1.264-1.588l30.39-105.183c0.217-0.706,0.148-1.372-0.204-1.997
		S1139.573,371.748,1138.867,371.531z"/>
	<path fill="#666666" d="M1093.324,392.064c0-0.707-0.271-1.332-0.814-1.875l-4.074-4.073c-0.543-0.543-1.168-0.815-1.875-0.815
		c-0.705,0-1.33,0.272-1.873,0.815l-37.967,37.966c-0.543,0.543-0.814,1.168-0.814,1.874s0.271,1.331,0.814,1.874l37.967,37.966
		c0.543,0.544,1.166,0.814,1.873,0.814s1.332-0.271,1.875-0.814l4.074-4.072c0.543-0.543,0.814-1.168,0.814-1.875
		c0-0.705-0.271-1.33-0.814-1.873l-32.02-32.02l32.02-32.019C1093.053,393.394,1093.324,392.769,1093.324,392.064z"/>
	<path fill="#666666" d="M1194.187,424.081l-37.967-37.966c-0.543-0.543-1.168-0.814-1.873-0.814c-0.707,0-1.33,0.271-1.875,0.814
		l-4.072,4.074c-0.543,0.543-0.814,1.166-0.814,1.873s0.271,1.332,0.814,1.875l32.019,32.019l-32.019,32.02
		c-0.543,0.543-0.814,1.168-0.814,1.873c0,0.707,0.271,1.332,0.814,1.875l4.072,4.072c0.545,0.545,1.168,0.814,1.875,0.814
		c0.705,0,1.33-0.271,1.873-0.814l37.967-37.966c0.543-0.543,0.813-1.169,0.813-1.875S1194.73,424.624,1194.187,424.081z"/>
</g>
</svg>
